<svg xmlns="http://www.w3.org/2000/svg" width="24" height="13" viewBox="0 0 24 13">
    <path fill="#DFE0E5" d="M22.287 2.109C21.182 1.004 19.713.395 18.15.395c-1.563 0-3.031.609-4.136 1.714l-1.017 1.016 2.121 2.122 1.017-1.017c1.112-1.111 2.919-1.11 4.03 0 1.11 1.11 1.11 2.919 0 4.03-1.111 1.11-2.918 1.111-4.03 0l-.023-.024L9.985 2.11C8.88 1.004 7.412.395 5.85.395c-1.562 0-3.03.609-4.136 1.714C.608 3.214 0 4.682 0 6.245c0 1.562.608 3.031 1.713 4.136s2.574 1.713 4.136 1.713c1.563 0 3.031-.608 4.136-1.713l1.017-1.017L8.88 7.243 7.864 8.26c-1.111 1.111-2.918 1.11-4.03 0-1.11-1.111-1.11-2.919 0-4.03.556-.556 1.286-.833 2.015-.833.73 0 1.46.277 2.015.833l6.15 6.15c1.106 1.106 2.574 1.714 4.137 1.714 1.562 0 3.03-.608 4.136-1.713C23.392 9.276 24 7.807 24 6.245c0-1.563-.608-3.031-1.713-4.136z"/>
</svg>
