<svg xmlns="http://www.w3.org/2000/svg" width="24" height="19" viewBox="0 0 24 19">
    <g fill="#DFE0E5">
        <path d="M23.275 5.15L.826 3.055C.384 3.012 0 3.361 0 3.807V7.5c0 .418.338.756.756.756.821 0 1.489.668 1.489 1.49 0 .82-.668 1.488-1.49 1.488-.417 0-.755.339-.755.756v3.448c0 .39.297.716.686.753 23.487 2.194 22.464 2.1 22.519 2.1.417 0 .756-.339.756-.756V5.903c0-.39-.298-.716-.686-.752zM8.39 12.33c-.98 0-1.774-.793-1.774-1.773 0-.98.794-1.774 1.774-1.774s1.774.794 1.774 1.774-.794 1.774-1.774 1.774zm7.007 2.529c-.476 0-.862-.386-.862-.862 0-.477.386-.863.862-.863s.862.386.862.863c0 .476-.386.862-.862.862zm1.132-3.81c-.98 0-1.774-.795-1.774-1.775 0-.98.794-1.774 1.774-1.774s1.774.795 1.774 1.774c0 .98-.794 1.775-1.774 1.775zM21.138 3.433c.606.056 1.012-.608.687-1.122L20.584.351c-.161-.255-.46-.389-.757-.342L8.719 1.775c-.292.047-.278.472.016.5l12.403 1.158z"/>
    </g>
</svg>
