<svg xmlns="http://www.w3.org/2000/svg" width="24" height="24" viewBox="0 0 24 24">
    <g fill="#DFE0E5">
        <path d="M19.74 4.26C18.457 2.977 14.163-1.1 12.78.283c-1.384 1.384 2.694 5.678 3.977 6.96 1.283 1.283 5.577 5.361 6.96 3.978 1.384-1.384-2.694-5.678-3.977-6.96zM8.277 4.785c-2.933 2.933-3.94 7.199-2.628 11.133.034.103.092.197.17.275l1.988 1.988c.078.078.172.136.275.17 3.934 1.312 8.2.305 11.133-2.628l2.933-2.933c-1.63-.408-3.742-1.908-6.386-4.552-2.644-2.644-4.144-4.755-4.552-6.386L8.277 4.785zM4.423 16.594l-1.199 1.218H2.109C.946 17.813 0 18.74 0 19.902c0 1.124.883 2.046 1.992 2.106.028.52.244 1.004.614 1.374.399.399.929.618 1.492.618 1.163 0 2.09-.946 2.09-2.11v-1.114l1.218-1.199c-.217-.103-.423-.231-.593-.401l-1.989-1.989c-.17-.17-.298-.376-.401-.593z"/>
    </g>
</svg>
