<svg xmlns="http://www.w3.org/2000/svg" width="24" height="24" viewBox="0 0 24 24">
    <g fill="#DFE0E5">
        <path d="M17.42 6.297c-.73-.73-1.63-1.215-2.607-1.46v.001c-1.514-.38-2.926-.154-4.213.606l2.842 2.842c.666.667-.35 1.639-.994.995L9.465 6.297c-.674.675-1.915 2.75-2.4 3.567l2.4 2.4c.666.666-.35 1.638-.994.994l-2.14-2.14c-.545.95-1.127 1.982-2.133 3.834l1.29 1.29c.666.665-.35 1.638-.995.994l-.992-.992c-1.234 2.3-2.555 5.03-3.424 6.734C-.16 23.444.18 24 .704 24c.436 0 9.012-4.925 9.392-5.139l-1.58-1.58c-.654-.655.335-1.654.994-.995l1.855 1.855c1.82-1.041 2.967-1.74 3.737-2.229l-2.61-2.61c-.653-.653.336-1.653.995-.994l2.814 2.815c1.624-1.12 2.544-2.32 2.718-4.37.14-1.764-.512-3.369-1.6-4.456zM21.982 4.684c.601-.825.53-1.992-.213-2.735-.752-.753-1.938-.817-2.766-.19C18.836.762 17.966 0 16.923 0c-1.163 0-2.11.946-2.11 2.11v1.268c1.356.266 2.603.926 3.601 1.925 1.02 1.02 1.658 2.279 1.919 3.598l1.559-.001c1.167 0 2.11-.945 2.108-2.111-.001-1.14-.899-2.06-2.018-2.105z"/>
    </g>
</svg>
