<svg xmlns="http://www.w3.org/2000/svg" width="40" height="40" viewBox="0 0 40 40">
    <g>
        <path d="M18.163 30.494c-.305.305-.305.8 0 1.105.305.304.8.304 1.104 0 .306-.306.306-.8 0-1.105-.304-.305-.799-.305-1.104 0z"/>
        <path d="M38.197 29.137l-5.932-5.043c-.027-.024-.056-.045-.086-.064-1.556-.99-3.554-.771-4.86.533l-3.233 3.234c-.224.224-.558.29-.851.17-3.652-1.511-6.652-3.785-8.916-6.76-1.727-2.267-2.35-4.07-2.432-4.323-.01-.054-.025-.108-.047-.161-.122-.293-.055-.627.17-.85l3.233-3.235c1.305-1.305 1.524-3.303.533-4.86l-.025-.036-4.283-5.952C10.12-.301 7.185-.617 5.423 1.144l-.648.648-.001.002-2.312 2.312c-2.757 2.757-3.208 6.9-1.304 11.982 1.63 4.353 4.895 9.117 9.193 13.414 4.398 4.399 9.291 7.724 13.777 9.363 4.44 1.622 9.162 1.822 12.505-1.52l2.18-2.181c1.754-1.754 1.448-4.67-.616-6.027zm-6.9-3.816l5.927 5.04c.027.023.056.044.086.063 1.266.806 1.457 2.576.398 3.635l-.162.162-10.107-7.568.986-.985c.77-.771 1.945-.91 2.872-.347zM10.163 2.648l.024.037 4.282 5.95c.582.931.447 2.12-.33 2.898l-.956.956L6.344 2.433l.184-.184c1.063-1.063 2.832-.862 3.635.399zm14.5 34.75c-4.275-1.563-8.966-4.76-13.208-9-4.143-4.144-7.28-8.71-8.834-12.858-1.167-3.114-1.95-7.434.946-10.33L5.22 3.558l6.838 10.056-1.153 1.154c-.656.655-.863 1.624-.535 2.487.246 1.012 1.381 3.113 2.526 4.66 1.684 2.279 4.742 5.428 9.742 7.496.878.364 1.88.164 2.553-.508l1.132-1.133 10.107 7.568-.902.902c-3.104 3.105-7.621 2.343-10.864 1.158z"/>
        <path d="M16.697 28.629c-.825-.724-2.253-1.968-3.004-2.742-1.844-1.894-3.778-4.19-4.927-5.849-.246-.354-.733-.443-1.087-.197-.355.246-.443.732-.198 1.087 1.45 2.092 3.581 4.496 5.092 6.049.793.816 2.233 2.072 3.094 2.826.323.284.817.253 1.102-.072.285-.324.252-.818-.072-1.102z"/>
    </g>
</svg>
