<svg xmlns="http://www.w3.org/2000/svg" width="71" height="70" viewBox="0 0 71 70">
    <g fill="none" fill-rule="evenodd" transform="matrix(-1 0 0 1 70 1)">
        <path stroke="#000" stroke-width="2" d="M26 18h7c1.105 0 2 .895 2 2s-.895 2-2 2h-7 0v-4z"/>
        <g stroke="#000" stroke-width="2">
            <path d="M.455 1.165C.16 2.057 0 3.01 0 4c0 4.97 4.03 9 9 9s9-4.03 9-9c0-1.055-.182-2.068-.515-3.01" transform="translate(41 55)"/>
            <path d="M6.123 1.221C5.428 1.941 5 2.921 5 4c0 2.21 1.79 4 4 4s4-1.79 4-4c0-1.133-.471-2.156-1.228-2.884" transform="translate(41 55)"/>
        </g>
        <g stroke="#000" stroke-width="2">
            <path d="M0 0c0 4.97 4.03 9 9 9s9-4.03 9-9" transform="translate(3 59)"/>
            <path d="M5 0c0 2.21 1.79 4 4 4s4-1.79 4-4" transform="translate(3 59)"/>
        </g>
        <path stroke="#000" stroke-linejoin="round" stroke-width="1.846" d="M24 59c0-6.627-5.373-12-12-12S0 52.373 0 59h24z"/>
        <rect width="17" height="5" x="33" y="32" stroke="#000" stroke-width="2" rx="2.5"/>
        <path stroke="#000" stroke-linecap="round" stroke-linejoin="round" stroke-width="2" d="M20 26c3.314 0 6-2.686 6-6s-2.686-6-6-6v12zM20 16c-2.21 0-4 1.79-4 4s1.79 4 4 4"/>
        <path stroke="#000" stroke-width="2" d="M9.5 47c-1.333-9.333 1.167-17.167 7.5-23.5M21.5 25.5C14.833 37.167 16 44 25 46c6 .667 9.333-2.333 10-9"/>
        <path stroke="#000" stroke-linecap="round" stroke-linejoin="round" stroke-width="2" d="M24 56h37.5c-1.667-9-5.833-15.5-12.5-19.5M60 50h-5.5M40 50H28.5"/>
        <path stroke="#000" stroke-width="2" d="M53 16H69V32H53z"/>
        <path stroke="#E52D2D" stroke-width="2" d="M59 16H63V22H59zM54 0H58V6H54z"/>
        <path stroke="#000" stroke-width="2" d="M48 0H64V16H48z"/>
        <path stroke="#000" stroke-linecap="round" stroke-linejoin="round" stroke-width="2" d="M57.5 44L66 34.5 66 32"/>
        <path stroke="#000" stroke-linejoin="round" stroke-width="2" d="M49 27L53 27 53 32 48 32z"/>
        <path stroke="#000" stroke-linecap="round" stroke-linejoin="round" stroke-width="2" d="M12 68L66 68"/>
    </g>
</svg>
