<svg xmlns="http://www.w3.org/2000/svg" width="40" height="40" viewBox="0 0 40 40">
    <g>
        <path d="M25.41 16.383c.704 0 1.366-.274 1.863-.772.498-.497.772-1.16.772-1.863 0-.704-.274-1.366-.772-1.864-1.028-1.028-2.7-1.028-3.727 0-.499.498-.773 1.16-.773 1.864 0 .704.274 1.366.773 1.863.497.498 1.16.772 1.863.772zm-.76-3.394c.21-.21.485-.314.76-.314.274 0 .55.104.758.314.203.202.315.472.315.759 0 .286-.112.556-.315.759-.202.202-.472.314-.759.314-.286 0-.556-.112-.759-.314-.202-.203-.314-.473-.314-.76 0-.286.112-.556.314-.758zM24.244 22.195c.609 0 1.217-.232 1.68-.696.928-.926.928-2.434 0-3.361-.926-.927-2.434-.927-3.36 0-.928.927-.928 2.435 0 3.361.462.464 1.071.696 1.68.696zm-.576-2.952c.159-.16.367-.238.576-.238.209 0 .417.079.576.238.318.317.318.834 0 1.152-.317.317-.834.317-1.152 0-.317-.318-.317-.835 0-1.152zM19.068 16.849h1.087c.848 0 1.537-.69 1.537-1.537v-1.087c0-.847-.69-1.536-1.537-1.536h-1.087c-.847 0-1.536.689-1.536 1.536v1.087c0 .848.69 1.537 1.536 1.537zm.026-2.598h1.035v1.035h-1.035v-1.035z"/>
        <path d="M39.873 33.792l-4.886-7.5c-.144-.22-.39-.355-.654-.355h-6.45l4.212-15.72c.248-.926-.009-1.884-.687-2.563-.678-.678-1.636-.935-2.563-.687L10.363 11.92c-.981.263-1.792.94-2.223 1.86-.432.918-.436 1.975-.013 2.898 1.622 3.529 3.925 6.67 6.745 9.26H6.364V4.688h27.188v15.78c0 .432.35.782.78.782.432 0 .782-.35.782-.781V4.229l1.137-1.136c.146-.147.228-.345.228-.552V.78C36.48.35 36.13 0 35.7 0H4.216c-.431 0-.781.35-.781.781v1.76c0 .207.082.405.229.552L4.802 4.23v22.26L.123 33.798c-.077.121-.123.266-.123.42v5c0 .432.35.782.781.782H39.22c.431 0 .781-.35.781-.781v-5c0-.158-.047-.304-.127-.427zM29.25 8.477c.095-.026.192-.039.287-.039.284 0 .558.112.767.321.278.28.384.673.282 1.054l-4.454 16.621c-.492-.417-1.129-.668-1.823-.668h-.254c-.836 0-1.516-.676-1.516-1.506 0-1.692-1.38-3.068-3.077-3.068-.836 0-1.516-.676-1.516-1.506 0-1.692-1.38-3.069-3.078-3.069-.835 0-1.515-.675-1.515-1.505 0-.833-.334-1.588-.876-2.141L29.25 8.477zM9.548 16.025c-.232-.503-.23-1.08.006-1.581.168-.357.44-.646.776-.836.81.03 1.46.691 1.46 1.503 0 1.692 1.381 3.069 3.078 3.069.836 0 1.515.675 1.515 1.506 0 1.692 1.381 3.068 3.078 3.068.836 0 1.516.675 1.516 1.506 0 1.692 1.38 3.068 3.077 3.068h.254c.668 0 1.215.519 1.257 1.171-.174.443-.51.804-.946 1.01-.502.235-1.078.237-1.582.005-5.96-2.738-10.75-7.529-13.49-13.489zM4.998 1.563h29.919v.654l-.908.908H5.906l-.908-.908v-.655zM3.212 31.87c.023.002.046.004.07.004h10.862c.431 0 .78-.35.78-.781 0-.432-.349-.782-.78-.782H4.21l1.8-2.812h10.714c1.74 1.348 3.636 2.504 5.661 3.435.457.21.947.314 1.436.314.5 0 .998-.109 1.462-.327.92-.431 1.597-1.242 1.86-2.222l.321-1.2h6.445l3.868 5.938H2.21l1.003-1.567zM21.26 35c-.262.421-.728.703-1.26.703s-.998-.282-1.26-.703h2.52zm17.177 3.438H1.563V35h15.492c.346 1.303 1.535 2.266 2.945 2.266s2.599-.963 2.945-2.266h15.492v3.438z"/>
        <path d="M18.05 31.094c0-.206-.084-.407-.229-.553-.145-.145-.347-.229-.552-.229-.206 0-.407.084-.553.23-.145.145-.229.346-.229.552 0 .205.084.407.23.552.145.145.346.229.552.229.205 0 .407-.084.552-.229.145-.145.229-.347.229-.552zM34.333 22.813c-.206 0-.407.083-.552.228-.146.146-.23.347-.23.553 0 .205.084.407.23.552.145.145.346.229.552.229.205 0 .407-.084.552-.229.146-.145.23-.347.23-.552 0-.206-.084-.407-.23-.553-.145-.145-.347-.229-.552-.229z"/>
    </g>
</svg>
