<svg xmlns="http://www.w3.org/2000/svg" width="314" height="314" viewBox="0 0 314 314">
    <path fill="#FFF" fill-rule="evenodd" d="M314 0v314H0V0h314zM151.479 5c-33.74 0-58.789 6.034-79.974 17.364C50.32 33.694 33.694 50.32 22.364 71.505 11.034 92.69 5 117.739 5 151.479v11.042c0 33.74 6.034 58.789 17.364 79.974 11.33 21.185 27.956 37.811 49.141 49.141C92.69 302.966 117.739 309 151.479 309h11.042c33.74 0 58.789-6.034 79.974-17.364 21.185-11.33 37.811-27.956 49.141-49.141C302.966 221.31 309 196.261 309 162.521V151.48c0-33.74-6.034-58.789-17.364-79.974-11.33-21.185-27.956-37.811-49.141-49.141C221.31 11.034 196.261 5 162.521 5z"/>
</svg>
